<svg xmlns="http://www.w3.org/2000/svg" viewBox="0 0 208 208"><defs><style>.cls-1{isolation:isolate;}.cls-2{fill:#fff;fill-rule:evenodd;}</style></defs><g id="Layer_2" data-name="Layer 2"><g id="Shape_38_copy" data-name="Shape 38 copy" class="cls-1"><g id="Shape_38_copy-2" data-name="Shape 38 copy"><path class="cls-2" d="M191.58,42.16,101.39.73a8.08,8.08,0,0,0-6.7,0L75.32,9.61a8,8,0,0,0,0,14.62L184.87,74.59a8,8,0,0,0,11.4-7.3V49.47A8,8,0,0,0,191.58,42.16Zm0,53.53L169,85.4a8,8,0,0,0-11.38,7.32V129.9a8.06,8.06,0,0,1-4.66,7.3l-43.5,20.2A8,8,0,0,1,98,150.11V112.75a8,8,0,0,0-4.67-7.3L70.82,95a8,8,0,0,0-11.42,7.3V184.9a8,8,0,0,0,4.65,7.29l30.61,14.25a8,8,0,0,0,6.76,0l90.17-41.59a8,8,0,0,0,4.68-7.3V103A8,8,0,0,0,191.56,95.69ZM101.37,88.2l21.3-9.81a8,8,0,0,0,0-14.6L43.47,27.16a8,8,0,0,0-6.78,0l-32,15A8,8,0,0,0,0,49.43V157.56a8,8,0,0,0,4.68,7.3l20.74,9.54a8,8,0,0,0,11.4-7.31V74.54a8,8,0,0,1,11.35-7.33l46.53,21A8,8,0,0,0,101.37,88.2Z"/></g></g></g></svg>